<?xml version="1.0" encoding="UTF-8" standalone="no" ?>
<!DOCTYPE svg PUBLIC "-//W3C//DTD SVG 1.1//EN" "http://www.w3.org/Graphics/SVG/1.1/DTD/svg11.dtd">
<svg xmlns="http://www.w3.org/2000/svg" xmlns:xlink="http://www.w3.org/1999/xlink" version="1.1" width="350" height="350" viewBox="0 0 350 350" xml:space="preserve">
<desc>Created with Fabric.js 1.7.22</desc>
<defs>
</defs>
<g id="icon" style="stroke: none; stroke-width: 1; stroke-dasharray: none; stroke-linecap: butt; stroke-linejoin: miter; stroke-miterlimit: 10; fill: none; fill-rule: nonzero; opacity: 1;" transform="translate(-1.9444444444444287 -1.9444444444444287) scale(3.89 3.89)" >
	<path d="M 45 83.506 c -0.512 0 -1.024 -0.195 -1.414 -0.586 L 18.267 57.601 c -0.781 -0.781 -0.781 -2.047 0 -2.828 c 0.78 -0.781 2.048 -0.781 2.828 0 L 45 78.678 l 23.905 -23.905 c 0.781 -0.781 2.047 -0.781 2.828 0 s 0.781 2.047 0 2.828 L 46.414 82.92 C 46.023 83.311 45.512 83.506 45 83.506 z" style="stroke: none; stroke-width: 1; stroke-dasharray: none; stroke-linecap: butt; stroke-linejoin: miter; stroke-miterlimit: 10; fill: rgb(0,0,0); fill-rule: nonzero; opacity: 1;" transform=" matrix(1 0 0 1 0 0) " stroke-linecap="round" />
	<path d="M 41.275 63.026 c -0.028 0 -0.057 -0.001 -0.085 -0.002 c -0.788 -0.033 -1.482 -0.526 -1.773 -1.259 L 29.75 37.47 l -6.032 12.877 c -0.329 0.702 -1.035 1.151 -1.811 1.151 H 2 c -1.104 0 -2 -0.896 -2 -2 s 0.896 -2 2 -2 h 18.635 l 7.454 -15.911 c 0.338 -0.722 1.092 -1.167 1.871 -1.15 c 0.797 0.023 1.504 0.519 1.799 1.26 l 9.725 24.442 l 8.917 -17.834 c 0.339 -0.678 1.031 -1.105 1.789 -1.105 c 0.002 0 0.004 0 0.006 0 c 0.76 0.002 1.453 0.435 1.788 1.116 l 4.522 9.183 H 88 c 1.104 0 2 0.896 2 2 s -0.896 2 -2 2 H 57.261 c -0.762 0 -1.458 -0.433 -1.794 -1.116 l -3.292 -6.684 l -9.111 18.223 C 42.724 62.601 42.03 63.026 41.275 63.026 z" style="stroke: none; stroke-width: 1; stroke-dasharray: none; stroke-linecap: butt; stroke-linejoin: miter; stroke-miterlimit: 10; fill: rgb(0,0,0); fill-rule: nonzero; opacity: 1;" transform=" matrix(1 0 0 1 0 0) " stroke-linecap="round" />
	<path d="M 5.69 43.653 c -0.639 0 -1.267 -0.305 -1.654 -0.873 c -6.28 -9.203 -5.117 -21.603 2.765 -29.485 c 9.054 -9.054 23.786 -9.055 32.84 0 L 45 18.654 l 5.358 -5.358 c 9.056 -9.054 23.788 -9.053 32.84 0 c 7.883 7.883 9.045 20.283 2.766 29.485 c -0.623 0.913 -1.868 1.146 -2.779 0.524 c -0.913 -0.623 -1.147 -1.867 -0.525 -2.779 c 5.197 -7.615 4.234 -17.878 -2.289 -24.402 c -7.494 -7.494 -19.688 -7.495 -27.184 0 l -6.772 6.773 c -0.75 0.75 -2.078 0.75 -2.828 0 l -6.772 -6.773 c -7.495 -7.494 -19.688 -7.493 -27.184 0 C 3.106 22.647 2.144 32.91 7.34 40.526 c 0.623 0.913 0.388 2.157 -0.524 2.779 C 6.471 43.541 6.079 43.653 5.69 43.653 z" style="stroke: none; stroke-width: 1; stroke-dasharray: none; stroke-linecap: butt; stroke-linejoin: miter; stroke-miterlimit: 10; fill: rgb(0,0,0); fill-rule: nonzero; opacity: 1;" transform=" matrix(1 0 0 1 0 0) " stroke-linecap="round" />
</g>
</svg>